<svg height="960" viewBox="0 0 960 960" width="960" xmlns="http://www.w3.org/2000/svg">
    <path d="M467.03 40.9774C586.836 36.7961 707.562 84.76 791.224 170.661C907.041 283.686 949.431 464.421 897.156 617.31C857.703 740.404 759.925 843.14 639.155 889.331C508.346 941.476 352.528 924.729 236.23 845.242C171.264 802.773 119.142 741.959 84.7081 672.629C40.6741 580.116 28.3122 472.192 53.9566 372.718C83.5026 254.133 164.6 149.296 273.25 92.5752C332.539 60.1323 399.631 43.5168 467.03 40.9774M453.923 179.177C347.531 186.62 249.534 256.607 205.215 353.016C164.009 439.53 168.59 545.9 216.196 628.956C247.978 686.639 300.1 732.611 360.66 758.355C437.243 792.462 528.292 790.12 604.567 756.276C690.29 717.988 755.695 637.69 775.64 545.988C793.569 462.713 776.32 371.186 724.877 302.622C664.492 218.122 557.64 168.45 453.923 179.177ZM458.306 255.709C535.547 246.537 614.518 280.14 666.048 337.276C682.663 356.891 679.572 388.414 661.862 406.277C647.286 421.054 621.445 424.907 604.524 411.772C590.255 400.564 578.287 386.532 562.484 377.272C509.661 340.363 431.829 345.923 384.814 390.056C370.567 401.921 357.767 421.054 336.769 419.084C311.497 421.448 287.672 397.827 288.593 372.696C286.094 358.817 291.858 345.091 301.174 335.043C341.24 290.275 398.535 261.664 458.306 255.709ZM467.052 430.708C507.82 420.419 553.016 453.366 553.607 495.441C558.101 529.81 532.938 565.033 499.074 572.038C475.863 578.453 450.197 571.075 432.618 555.095C407.302 532.678 401.275 491.041 420.541 462.954C431.128 447.039 447.742 433.62 467.052 430.708Z" fill-rule="evenodd"/>
</svg>